<svg width="30" height="37" viewBox="0 0 30 37" fill="none" xmlns="http://www.w3.org/2000/svg">
<path d="M0 35.3371H3.65854C4.1115 35.3371 4.42509 35.2331 4.5993 35.0253C4.80836 34.7828 4.91289 34.419 4.91289 33.934V2.91011C4.91289 2.42509 4.82578 2.09597 4.65157 1.92275C4.47735 1.74953 4.14634 1.66292 3.65854 1.66292H0V0H17.561V1.66292H13.9024C13.4495 1.66292 13.1185 1.74953 12.9094 1.92275C12.7352 2.09597 12.6481 2.42509 12.6481 2.91011V33.934C12.6481 34.419 12.7352 34.7828 12.9094 35.0253C13.1185 35.2331 13.4495 35.3371 13.9024 35.3371H19.1812C21.0627 35.3371 22.6655 34.367 23.9895 32.427C25.3484 30.4869 26.3589 28.4429 27.0209 26.2949C27.2648 25.4981 27.5261 24.5108 27.8049 23.3329C28.0836 22.155 28.2578 21.3755 28.3275 20.9944H30L29.5819 37H0V35.3371Z" fill="white"/>
</svg>
