<svg width="280" height="50" viewBox="0 0 280 50" fill="none" xmlns="http://www.w3.org/2000/svg">
<g clip-path="url(#clip0_15_47)">
<path d="M16.4868 0H0V49.7222H16.4868V0Z" fill="white"/>
<path d="M82.3421 0H65.8552V49.7222H82.3421V0Z" fill="white"/>
<path d="M115.316 0H98.8289V49.7222H115.316V0Z" fill="white"/>
<path d="M148.29 0H131.803V49.7222H148.29V0Z" fill="white"/>
<path d="M181.171 0H164.684V49.7222H181.171V0Z" fill="white"/>
<path d="M214.145 0H197.658V49.7222H214.145V0Z" fill="white"/>
<path d="M280 0H263.513V49.7222H280V0Z" fill="white"/>
<path d="M57.658 16.5742H24.6843V33.1483H57.658V16.5742Z" fill="white"/>
<path d="M227.253 -0.017375L215.595 11.7021L238.911 35.1412L250.569 23.4217L227.253 -0.017375Z" fill="white"/>
</g>
<defs>
<clipPath id="clip0_15_47">
<rect width="280" height="50" fill="white"/>
</clipPath>
</defs>
</svg>
