<svg width="45" height="40" viewBox="0 0 45 40" fill="none" xmlns="http://www.w3.org/2000/svg">
<path fillRule="evenodd" clipRule="evenodd" d="M18.6657 35.1898C21.8358 32.6956 25.3462 28.57 28.3463 23.3744C31.3464 18.1788 33.1647 13.0764 33.7399 9.08426C34.0285 7.08153 33.987 5.47635 33.7117 4.32103C33.4379 3.17207 32.9934 2.67777 32.6256 2.46549C32.2579 2.25321 31.6075 2.11545 30.4754 2.45285C29.3371 2.79212 27.926 3.55875 26.3356 4.81001C23.1654 7.3042 19.6551 11.4298 16.655 16.6254C13.6548 21.821 11.8366 26.9234 11.2613 30.9155C10.9727 32.9183 11.0143 34.5234 11.2896 35.6788C11.5634 36.8277 12.0079 37.322 12.3756 37.5343C12.7434 37.7466 13.3938 37.8843 14.5258 37.5469C15.6642 37.2077 17.0753 36.441 18.6657 35.1898ZM11.2506 39.4826C15.5553 41.9675 24.0817 35.2592 30.2949 24.4992C36.5081 13.7392 38.0553 3.00214 33.7506 0.517224C29.446 -1.96769 20.9196 4.74058 14.7064 15.5006C8.4932 26.2605 6.946 36.9977 11.2506 39.4826Z" fill="black"/>
<path fillRule="evenodd" clipRule="evenodd" d="M33.7399 30.9157C33.1647 26.9236 31.3464 21.8212 28.3463 16.6256C25.3462 11.43 21.8358 7.30441 18.6657 4.81022C17.0753 3.55897 15.6642 2.79233 14.5258 2.45306C13.3938 2.11566 12.7434 2.25343 12.3756 2.4657C12.0079 2.67798 11.5634 3.17228 11.2896 4.32124C11.0143 5.47656 10.9727 7.08175 11.2613 9.08447C11.8366 13.0766 13.6548 18.179 16.655 23.3746C19.6551 28.5702 23.1654 32.6958 26.3356 35.19C27.926 36.4412 29.3371 37.2079 30.4754 37.5471C31.6075 37.8846 32.2579 37.7468 32.6256 37.5345C32.9934 37.3222 33.4379 36.8279 33.7117 35.679C33.987 34.5237 34.0285 32.9185 33.7399 30.9157ZM33.7506 39.4828C38.0553 36.9979 36.5081 26.2608 30.2949 15.5008C24.0817 4.74079 15.5553 -1.96748 11.2506 0.517437C6.946 3.00235 8.4932 13.7395 14.7064 24.4994C20.9196 35.2594 29.446 41.9677 33.7506 39.4828Z" fill="black"/>
<path fillRule="evenodd" clipRule="evenodd" d="M37.5743 15.7254C33.8288 14.2275 28.5002 13.2507 22.5 13.2507C16.4998 13.2507 11.1712 14.2275 7.42573 15.7254C5.54676 16.4769 4.17719 17.3155 3.31415 18.1315C2.45587 18.9431 2.25 19.5751 2.25 19.9997C2.25 20.4243 2.45587 21.0563 3.31415 21.8679C4.17719 22.6839 5.54676 23.5225 7.42573 24.274C11.1712 25.7719 16.4998 26.7487 22.5 26.7487C28.5002 26.7487 33.8288 25.7719 37.5743 24.274C39.4532 23.5225 40.8228 22.6839 41.6858 21.8679C42.5441 21.0563 42.75 20.4242 42.75 19.9997C42.75 19.5751 42.5441 18.9431 41.6858 18.1315C40.8228 17.3155 39.4532 16.4769 37.5743 15.7254ZM45 19.9997C45 15.0299 34.9264 11.001 22.5 11.001C10.0736 11.001 -2.56576e-07 15.0299 0 19.9997C2.56577e-07 24.9695 10.0736 28.9984 22.5 28.9984C34.9264 28.9984 45 24.9695 45 19.9997Z" fill="black"/>
<path d="M24.8483 21.9328C24.0199 23.3675 22.1851 23.859 20.7502 23.0307C19.3154 22.2024 18.8237 20.3679 19.6522 18.9332C20.4806 17.4986 22.3154 17.007 23.7502 17.8353C25.1851 18.6636 25.6767 20.4981 24.8483 21.9328Z" fill="black"/>
</svg>
