<svg width="258" height="48" viewBox="0 0 258 48" fill="none" xmlns="http://www.w3.org/2000/svg">
<path d="M15.1914 28.7891H2.14453V0H16.1289C19.6576 0.0520833 22.1576 1.07422 23.6289 3.06641C24.5143 4.29036 24.957 5.75521 24.957 7.46094C24.957 9.21875 24.5143 10.6315 23.6289 11.6992C23.1341 12.2982 22.4049 12.8451 21.4414 13.3398C22.9128 13.8737 24.0195 14.7201 24.7617 15.8789C25.5169 17.0378 25.8945 18.444 25.8945 20.0977C25.8945 21.8034 25.4648 23.3333 24.6055 24.6875C24.0586 25.5859 23.375 26.3411 22.5547 26.9531C21.6302 27.6562 20.5365 28.138 19.2734 28.3984C18.0234 28.6589 16.6628 28.7891 15.1914 28.7891ZM15.0547 16.1133H7.88672V23.7891H14.957C16.2201 23.7891 17.2031 23.6198 17.9062 23.2812C19.1823 22.6562 19.8203 21.4583 19.8203 19.6875C19.8203 18.1901 19.2018 17.1615 17.9648 16.6016C17.2747 16.2891 16.3047 16.1263 15.0547 16.1133ZM18.043 10.625C18.8242 10.1562 19.2148 9.31641 19.2148 8.10547C19.2148 6.76432 18.694 5.87891 17.6523 5.44922C16.7539 5.14974 15.6081 5 14.2148 5H7.88672V11.3477H14.957C16.2201 11.3477 17.2487 11.1068 18.043 10.625Z" fill="white"/>
<path d="M59.7953 0L50.1664 17.9688V28.7891H44.1508V17.9688L34.1898 0H41.2797L47.2562 12.5391L52.9789 0H59.7953Z" fill="white"/>
<path d="M86.0008 28.7891V15.9375H74.7508V28.7891H68.7937V0H74.7508V10.9766H86.0008V0H91.9773V28.7891H86.0008Z" fill="white"/>
<path d="M123.378 16.2109H109.394V23.6133H125.331V28.7891H103.515V0H124.628V5.09766H109.394V11.2109H123.378V16.2109Z" fill="white"/>
<path d="M158.861 0L149.232 17.9688V28.7891H143.216V17.9688L133.255 0H140.345L146.322 12.5391L152.045 0H158.861Z" fill="white"/>
<path d="M180.301 28.7891H167.898V0H180.301C182.085 0.0260417 183.569 0.234375 184.754 0.625C186.772 1.28906 188.406 2.50651 189.656 4.27734C190.659 5.70964 191.342 7.25911 191.707 8.92578C192.072 10.5924 192.254 12.181 192.254 13.6914C192.254 17.5195 191.486 20.7617 189.949 23.418C187.866 26.9987 184.65 28.7891 180.301 28.7891ZM184.773 7.34375C183.849 5.78125 182.02 5 179.285 5H173.738V23.7891H179.285C182.124 23.7891 184.103 22.3893 185.223 19.5898C185.835 18.0534 186.141 16.224 186.141 14.1016C186.141 11.1719 185.685 8.91927 184.773 7.34375Z" fill="white"/>
<path d="M222.444 16.2109H208.459V23.6133H224.397V28.7891H202.58V0H223.694V5.09766H208.459V11.2109H222.444V16.2109Z" fill="white"/>
<path d="M257.927 0L248.298 17.9688V28.7891H242.282V17.9688L232.321 0H239.411L245.387 12.5391L251.11 0H257.927Z" fill="white"/>
<rect y="42.7891" width="255" height="5" fill="white"/>
</svg>
