<svg width="35" height="36" viewBox="0 0 35 36" fill="none" xmlns="http://www.w3.org/2000/svg">
<path d="M33.0691 21.878C32.929 20.7174 34.2301 19.7268 34.11 17.4155C33.8898 13.3032 30.1065 9.1709 23.5107 9.1709C16.9549 9.1709 11.5101 13.9636 10.4192 20.2371C11.39 20.6874 12.491 20.9375 13.6721 20.9375C14.2626 20.9375 14.8431 20.8675 15.4036 20.7474C16.1843 16.8152 19.4772 13.9436 23.5507 13.9436C27.3741 13.9436 29.1357 16.0748 29.2157 17.5556C29.3458 19.7869 28.0747 20.4072 28.1448 21.9481C28.2148 23.639 30.1966 24.4595 30.0164 26.9809C29.8763 28.852 27.4442 31.1433 23.5607 31.1433C20.3579 31.1433 17.6355 29.3522 16.2343 26.6707C15.4036 26.8208 14.5528 26.9109 13.6821 26.9109C12.7212 26.9109 11.7904 26.8108 10.8796 26.6207C12.6011 31.9937 17.6055 35.9059 23.5207 35.9059C29.9664 35.9059 34.7206 32.1938 34.9908 27.2811C35.1509 24.0192 33.1692 22.7786 33.0691 21.878Z" fill="white"/>
<path d="M16.2241 26.6806C15.3934 26.8307 14.5426 26.9208 13.6719 26.9208C12.711 26.9208 11.7802 26.8207 10.8694 26.6306C11.1596 27.5311 11.54 28.3716 12.0004 29.182C12.5509 29.2421 13.1014 29.2721 13.6719 29.2721C15.0631 29.2721 16.4243 29.092 17.7454 28.7618C17.1349 28.1515 16.6244 27.4511 16.2241 26.6806Z" fill="url(#paint0_radial_11_19)"/>
<path d="M0 13.4776C0 20.9118 6.1354 26.9652 13.672 26.9652C16.5846 26.9652 19.3771 26.0847 21.7391 24.4338C22.8501 23.6533 23.1203 22.1225 22.3397 21.0118C21.559 19.9012 20.0276 19.6311 18.9166 20.4115C17.3853 21.4821 15.5737 22.0524 13.672 22.0524C8.75771 22.0524 5.07446 18.2903 5.07446 13.4776C5.07446 8.66489 8.76772 4.90277 13.672 4.90277C15.3535 4.90277 17.005 5.35302 18.4162 6.22351C19.5772 6.92391 21.0886 6.5637 21.7892 5.40305C22.4898 4.2424 22.1195 2.73155 20.9685 2.03115C18.7865 0.700406 16.2543 1.24063e-05 13.672 1.24063e-05C6.1354 -0.00999322 0 6.03341 0 13.4776Z" fill="white"/>
<defs>
<radialGradient id="paint0_radial_11_19" cx="0" cy="0" r="1" gradientUnits="userSpaceOnUse" gradientTransform="translate(13.699 13.4611) scale(15.8464 15.8413)">
<stop stop-color="#0072B6"/>
<stop offset="0.88" stop-color="#0072B6"/>
<stop offset="1" stop-color="#009FE3"/>
</radialGradient>
</defs>
</svg>
