<svg width="134" height="134" viewBox="0 0 134 134" fill="none" xmlns="http://www.w3.org/2000/svg">
<mask id="mask0_15_73" style="mask-type:luminance" maskUnits="userSpaceOnUse" x="0" y="0" width="134" height="134">
<path d="M0.333252 0.333008H133.667V133.666H0.333252V0.333008Z" fill="white"/>
</mask>
<g mask="url(#mask0_15_73)">
<path d="M94.529 122.389C79.272 137.646 54.728 137.646 39.471 122.389L11.6103 94.5285C-3.64678 79.2715 -3.64678 54.7275 11.6103 39.4705L39.471 11.6098C54.728 -3.64727 79.272 -3.64727 94.529 11.6098L122.39 39.4705C137.647 54.7275 137.647 79.2715 122.39 94.5285L94.529 122.389Z" fill="white"/>
</g>
<mask id="mask1_15_73" style="mask-type:luminance" maskUnits="userSpaceOnUse" x="0" y="0" width="134" height="134">
<path d="M0.333252 0.333008H133.667V133.666H0.333252V0.333008Z" fill="white"/>
</mask>
<g mask="url(#mask1_15_73)">
<path d="M50.7479 107.796C48.7579 107.796 46.7678 105.806 46.7678 103.816C46.7678 102.489 47.4312 101.825 48.0945 101.162C48.7579 100.499 50.0846 99.8354 50.7479 99.8354C52.738 99.8354 54.728 101.825 54.728 103.816C54.728 105.806 52.738 107.796 50.7479 107.796Z" fill="black"/>
</g>
<mask id="mask2_15_73" style="mask-type:luminance" maskUnits="userSpaceOnUse" x="0" y="0" width="134" height="134">
<path d="M0.241699 0.0576172H133.575V133.391H0.241699V0.0576172Z" fill="white"/>
</mask>
<g mask="url(#mask2_15_73)">
<path d="M65.3416 32.1741C63.3515 32.1741 61.3615 32.8374 60.0348 34.1641C56.718 37.4809 55.3913 43.451 55.3913 52.0746C55.3913 62.6882 58.0447 83.252 66.6683 94.529C67.995 96.519 69.3217 97.8457 71.3117 98.5091C72.6384 99.1724 74.6285 100.499 77.2819 100.499H79.2719C83.9154 99.1724 89.8855 93.8656 94.529 87.2321C95.1923 85.9054 96.519 85.2421 97.8457 85.2421C98.5091 85.2421 99.1724 85.2421 99.8358 85.9054C100.499 86.5688 101.162 87.2321 101.162 87.8955C101.162 88.5588 101.162 89.8855 100.499 90.5489C94.529 99.8358 87.2321 105.806 80.5986 107.133C79.2719 107.133 77.9452 107.796 76.6185 107.796C71.9751 107.796 69.3217 105.806 66.6683 104.479C64.6782 103.153 62.6882 101.162 60.6981 98.5091C48.7578 83.252 48.0945 54.728 48.0945 52.0746C48.0945 44.7777 48.7578 34.1641 54.728 28.194C57.3814 25.5406 61.3615 24.2139 65.3416 24.2139H66.0049C69.985 24.2139 73.9651 25.5406 76.6185 28.194C82.5887 34.1641 83.9154 44.1144 83.252 52.0746C83.252 60.0348 81.9253 75.2918 73.3018 88.5588C72.6384 89.8855 71.3117 90.5489 69.985 90.5489C69.3217 90.5489 68.6583 90.5489 67.995 89.8855C66.0049 88.5588 66.0049 86.5688 66.6683 84.5787C72.6384 75.2918 75.2918 64.6782 75.2918 51.4112C75.2918 42.7877 73.9651 36.1542 70.6484 33.5008C69.985 32.8374 68.6583 32.1741 65.3416 32.1741Z" fill="black"/>
</g>
</svg>
