<svg width="151" height="34" viewBox="0 0 151 34" fill="none" xmlns="http://www.w3.org/2000/svg">
<path d="M12.7538 0.454546C15.5002 0.454546 17.8438 0.833334 19.7844 1.59091C21.725 2.34849 23.2051 3.4697 24.2247 4.95455C25.2608 6.43939 25.7789 8.26515 25.7789 10.4318C25.7789 12.0985 25.45 13.5606 24.7921 14.8182C24.1343 16.0758 23.1969 17.1364 21.9799 18C20.7793 18.8485 19.3568 19.5076 17.7122 19.9773L15.788 20.8864H4.41571L4.36637 16.1818H12.8031C14.2668 16.1818 15.4838 15.947 16.4541 15.4773C17.4408 15.0076 18.1727 14.3636 18.6496 13.5455C19.143 12.7273 19.3897 11.7955 19.3897 10.75C19.3897 9.05303 18.8552 7.70455 17.7862 6.70455C16.7337 5.68939 15.0562 5.18182 12.7538 5.18182H6.36455V33.5455H0V0.454546H12.7538ZM12.0137 18.7045L18.6989 18.6818L27.2097 33.25V33.5455H20.4011L12.0137 18.7045Z" fill="white"/>
<path d="M89.5756 17.8636C89.5756 21.2121 88.9507 24.0909 87.7008 26.5C86.4509 28.9091 84.7077 30.7652 82.471 32.0682C80.2508 33.3561 77.6442 34 74.651 34C71.7237 34 69.1252 33.3561 66.8557 32.0682C64.6026 30.7652 62.8347 28.9091 61.5519 26.5C60.2856 24.0909 59.6524 21.2121 59.6524 17.8636V16.1591C59.6524 12.8106 60.2856 9.93182 61.5519 7.52273C62.8182 5.09848 64.5779 3.24242 66.831 1.95455C69.0841 0.651515 71.6743 0 74.6017 0C77.5948 0 80.2097 0.651515 82.4464 1.95455C84.683 3.24242 86.4263 5.09848 87.6761 7.52273C88.9425 9.93182 89.5756 12.8106 89.5756 16.1591V17.8636ZM83.1864 16.1136C83.1864 13.6742 82.8493 11.6212 82.175 9.95455C81.5007 8.27273 80.5222 7.00757 79.2394 6.15909C77.9566 5.29545 76.4107 4.86364 74.6017 4.86364C72.8255 4.86364 71.2961 5.29545 70.0133 6.15909C68.747 7.00757 67.7684 8.27273 67.0777 9.95455C66.4034 11.6212 66.0663 13.6742 66.0663 16.1136V17.8636C66.0663 20.303 66.4117 22.3636 67.1024 24.0455C67.7931 25.7273 68.7799 27 70.0626 27.8636C71.3454 28.7273 72.8749 29.1591 74.651 29.1591C76.4765 29.1591 78.0224 28.7273 79.2888 27.8636C80.5715 27 81.5418 25.7273 82.1997 24.0455C82.8575 22.3636 83.1864 20.303 83.1864 17.8636V16.1136Z" fill="white"/>
<path d="M146.091 18.9091H129.518V14.1818H146.091V18.9091ZM131.097 33.5455H124.732V0.454546H131.097V33.5455ZM151 33.5455H144.66V0.454546H151V33.5455Z" fill="white"/>
</svg>
